<svg xmlns="http://www.w3.org/2000/svg" viewBox="0 0 1120 160" width="1120" height="160" role="img" aria-label="Seven Peek faces looking at the one in the middle"><clipPath id="sheet"><rect width="1120" height="160" rx="16"/></clipPath><g clip-path="url(#sheet)"><rect width="1120" height="160" fill="#1A1918"/><svg x="0" y="0" xmlns="http://www.w3.org/2000/svg" viewBox="-30 -30 400 400" width="160" height="160" role="img" aria-label="Iris"><defs><clipPath id="peek-6jpc3g-f"><rect x="-30" y="-30" width="400" height="400"/></clipPath><filter id="peek-6jpc3g-pA" x="-20%" y="-20%" width="140%" height="140%" color-interpolation-filters="sRGB"><feTurbulence type="fractalNoise" baseFrequency="0.032" numOctaves="2" seed="4" result="warp"/><feDisplacementMap in="SourceGraphic" in2="warp" scale="0.11" xChannelSelector="R" yChannelSelector="G" result="moved"/><feTurbulence type="fractalNoise" baseFrequency="0.85" numOctaves="2" seed="11" result="grain"/><feColorMatrix in="grain" type="matrix" values="0 0 0 0 0  0 0 0 0 0  0 0 0 0 0  -0.009 0 0 0 1.007" result="mask"/><feComposite in="moved" in2="mask" operator="in"/></filter><filter id="peek-6jpc3g-pB" x="-20%" y="-20%" width="140%" height="140%" color-interpolation-filters="sRGB"><feTurbulence type="fractalNoise" baseFrequency="0.032" numOctaves="2" seed="9" result="warp"/><feDisplacementMap in="SourceGraphic" in2="warp" scale="0.08" xChannelSelector="R" yChannelSelector="G" result="moved"/><feTurbulence type="fractalNoise" baseFrequency="0.85" numOctaves="2" seed="23" result="grain"/><feColorMatrix in="grain" type="matrix" values="0 0 0 0 0  0 0 0 0 0  0 0 0 0 0  -0.009 0 0 0 1.007" result="mask"/><feComposite in="moved" in2="mask" operator="in"/></filter><filter id="peek-6jpc3g-grain" x="0" y="0" width="1" height="1" color-interpolation-filters="sRGB"><feTurbulence type="fractalNoise" baseFrequency="0.9" numOctaves="2" seed="5"/><feColorMatrix type="matrix" values="0 0 0 0 0.953  0 0 0 0 0.941  0 0 0 0 0.91  7 0 0 0 -5.1"/></filter><clipPath id="peek-6jpc3g-e0"><ellipse cx="0" cy="0" rx="30.53" ry="25.44"/></clipPath><clipPath id="peek-6jpc3g-l0"><ellipse cx="0" cy="0" rx="32.13" ry="27.04"/></clipPath><clipPath id="peek-6jpc3g-e1"><ellipse cx="0" cy="0" rx="30.53" ry="25.44"/></clipPath><clipPath id="peek-6jpc3g-l1"><ellipse cx="0" cy="0" rx="32.13" ry="27.04"/></clipPath></defs><g clip-path="url(#peek-6jpc3g-f)"><rect x="-30" y="-30" width="400" height="400" fill="#1A1918"/><g fill="#F3F0E8"><circle cx="312" cy="2" r="3.4" opacity="0.55"/><circle cx="330" cy="2" r="3.4" opacity="0.55"/><circle cx="348" cy="2" r="3.4" opacity="0.55"/><circle cx="312" cy="20" r="3.4" opacity="0.55"/><circle cx="330" cy="20" r="3.4" opacity="0.55"/><circle cx="348" cy="20" r="3.4" opacity="0.55"/><circle cx="312" cy="38" r="3.4" opacity="0.55"/><circle cx="330" cy="38" r="3.4" opacity="0.55"/><circle cx="348" cy="38" r="3.39" opacity="0.546"/></g><g transform="translate(0 140.6) rotate(5.92 170 255) translate(170 255) scale(1 1) translate(-170 -255)"><g transform="translate(-0.05 0.04)" filter="url(#peek-6jpc3g-pA)"><path d="M0 255A170 170 0 0 1 340 255Z" fill="#C8D6E8"/><g transform="translate(108.56 102.94) rotate(-16.8)"><path d="M0 0L0 -40A40 40 0 0 1 40 0Z" fill="#A8BCDC"/></g></g><g transform="translate(0.05 -0.04)" filter="url(#peek-6jpc3g-pB)"><g transform="translate(97.41 175)"><g clip-path="url(#peek-6jpc3g-e0)"><ellipse cx="0" cy="0" rx="30.53" ry="25.44" fill="#FFFDF8"/><circle cx="17.38" cy="1.65" r="12.17" fill="#1A1918"/><circle cx="22.73" cy="-3.7" r="3.65" fill="#FFFDF8" opacity="1"/></g><g clip-path="url(#peek-6jpc3g-l0)"><rect x="-67.16" y="-76.32" width="134.32" height="49.28" transform="rotate(0)" fill="#C8D6E8"/><ellipse cx="0" cy="56.3" rx="47.32" ry="29.26" fill="#C8D6E8"/></g></g><g transform="translate(242.59 175)"><g clip-path="url(#peek-6jpc3g-e1)"><ellipse cx="0" cy="0" rx="30.53" ry="25.44" fill="#FFFDF8"/><circle cx="17.38" cy="1.65" r="12.17" fill="#1A1918"/><circle cx="22.73" cy="-3.7" r="3.65" fill="#FFFDF8" opacity="1"/></g><g clip-path="url(#peek-6jpc3g-l1)"><rect x="-67.16" y="-76.32" width="134.32" height="49.28" transform="rotate(0)" fill="#C8D6E8"/><ellipse cx="0" cy="56.3" rx="47.32" ry="29.26" fill="#C8D6E8"/></g></g><path d="M-22.5 0Q0 -2.83 22.5 0" transform="translate(97.41 130.49) rotate(3.17)" fill="none" stroke="#1A1918" stroke-linecap="round" stroke-linejoin="round" stroke-width="10.82"/><path d="M-22.5 0Q0 -2.83 22.5 0" transform="translate(242.59 124.34) rotate(-3.17)" fill="none" stroke="#1A1918" stroke-linecap="round" stroke-linejoin="round" stroke-width="10.82"/><path d="M-5.37 0C-5.37 7.8 5.37 7.8 5.37 0C5.37 -7.8 -5.37 -7.8 -5.37 0Z" transform="translate(170 219.83) rotate(0)" fill="#1A1918" stroke="#1A1918" stroke-linecap="round" stroke-linejoin="round" stroke-width="4.38"/></g></g><rect x="-30" y="-30" width="400" height="400" filter="url(#peek-6jpc3g-grain)" opacity="0.3" pointer-events="none"/></g></svg><svg x="160" y="0" xmlns="http://www.w3.org/2000/svg" viewBox="-30 -30 400 400" width="160" height="160" role="img" aria-label="Noor"><defs><clipPath id="peek-tkxyda-f"><rect x="-30" y="-30" width="400" height="400"/></clipPath><filter id="peek-tkxyda-pA" x="-20%" y="-20%" width="140%" height="140%" color-interpolation-filters="sRGB"><feTurbulence type="fractalNoise" baseFrequency="0.032" numOctaves="2" seed="4" result="warp"/><feDisplacementMap in="SourceGraphic" in2="warp" scale="0.11" xChannelSelector="R" yChannelSelector="G" result="moved"/><feTurbulence type="fractalNoise" baseFrequency="0.85" numOctaves="2" seed="11" result="grain"/><feColorMatrix in="grain" type="matrix" values="0 0 0 0 0  0 0 0 0 0  0 0 0 0 0  -0.009 0 0 0 1.007" result="mask"/><feComposite in="moved" in2="mask" operator="in"/></filter><filter id="peek-tkxyda-pB" x="-20%" y="-20%" width="140%" height="140%" color-interpolation-filters="sRGB"><feTurbulence type="fractalNoise" baseFrequency="0.032" numOctaves="2" seed="9" result="warp"/><feDisplacementMap in="SourceGraphic" in2="warp" scale="0.08" xChannelSelector="R" yChannelSelector="G" result="moved"/><feTurbulence type="fractalNoise" baseFrequency="0.85" numOctaves="2" seed="23" result="grain"/><feColorMatrix in="grain" type="matrix" values="0 0 0 0 0  0 0 0 0 0  0 0 0 0 0  -0.009 0 0 0 1.007" result="mask"/><feComposite in="moved" in2="mask" operator="in"/></filter><filter id="peek-tkxyda-grain" x="0" y="0" width="1" height="1" color-interpolation-filters="sRGB"><feTurbulence type="fractalNoise" baseFrequency="0.9" numOctaves="2" seed="5"/><feColorMatrix type="matrix" values="0 0 0 0 0.953  0 0 0 0 0.941  0 0 0 0 0.91  7 0 0 0 -5.1"/></filter><clipPath id="peek-tkxyda-e0"><ellipse cx="0" cy="0" rx="18.6" ry="25.58"/></clipPath><clipPath id="peek-tkxyda-l0"><ellipse cx="0" cy="0" rx="20.2" ry="27.18"/></clipPath><clipPath id="peek-tkxyda-e1"><ellipse cx="0" cy="0" rx="18.6" ry="25.58"/></clipPath><clipPath id="peek-tkxyda-l1"><ellipse cx="0" cy="0" rx="20.2" ry="27.18"/></clipPath></defs><g clip-path="url(#peek-tkxyda-f)"><rect x="-30" y="-30" width="400" height="400" fill="#1A1918"/><g transform="translate(0 73.25) rotate(-2.51 170 320) translate(170 320) scale(1 1) translate(-170 -320)"><g transform="translate(-0.05 0.04)" filter="url(#peek-tkxyda-pA)"><path d="M170 20L320 170L170 320L20 170Z" fill="#EFCAD7"/><ellipse cx="117.5" cy="200" rx="11.25" ry="5.62" fill="#DFA4BA" opacity="1" transform="translate(115.87 198.32) scale(1) translate(-117.5 -200)"/><ellipse cx="222.5" cy="200" rx="11.25" ry="5.62" fill="#DFA4BA" opacity="1" transform="translate(224.13 198.32) scale(1) translate(-222.5 -200)"/><g transform="translate(125.47 64.53) rotate(-33.4)"><path d="M0 0L0 -40A40 40 0 0 1 40 0Z" fill="#DFA4BA"/></g></g><g transform="translate(0.05 -0.04)" filter="url(#peek-tkxyda-pB)"><g transform="translate(135.9 155.9)"><g clip-path="url(#peek-tkxyda-e0)"><circle cx="6.98" cy="1.81" r="12.15" fill="#1A1918"/><circle cx="12.32" cy="-3.54" r="3.16" fill="#FFFDF8" opacity="1"/></g><g clip-path="url(#peek-tkxyda-l0)"><rect x="-40.92" y="-76.73" width="81.84" height="49.55" transform="rotate(0)" fill="#EFCAD7"/><ellipse cx="0" cy="40.47" rx="28.83" ry="29.41" fill="#EFCAD7"/></g></g><g transform="translate(216.34 155.9)"><g clip-path="url(#peek-tkxyda-e1)"><circle cx="6.98" cy="1.81" r="12.15" fill="#1A1918"/><circle cx="12.32" cy="-3.54" r="3.16" fill="#FFFDF8" opacity="1"/></g><g clip-path="url(#peek-tkxyda-l1)"><rect x="-40.92" y="-76.73" width="81.84" height="49.55" transform="rotate(0)" fill="#EFCAD7"/><ellipse cx="0" cy="40.47" rx="28.83" ry="29.41" fill="#EFCAD7"/></g></g><path d="M-18.75 0Q0 -12.3 18.75 0" transform="translate(129.78 99.42) rotate(-2.9)" fill="none" stroke="#1A1918" stroke-linecap="round" stroke-linejoin="round" stroke-width="5.68"/><path d="M-18.75 0Q0 -12.3 18.75 0" transform="translate(210.22 99.42) rotate(2.9)" fill="none" stroke="#1A1918" stroke-linecap="round" stroke-linejoin="round" stroke-width="5.68"/><path d="M-14.1 0L0 0L14.1 0L0 16.25Z" transform="translate(170 220.99) rotate(0)" fill="#1A1918" stroke="#1A1918" stroke-linecap="round" stroke-linejoin="round" stroke-width="4.38"/></g></g><rect x="-30" y="-30" width="400" height="400" filter="url(#peek-tkxyda-grain)" opacity="0.3" pointer-events="none"/></g></svg><svg x="320" y="0" xmlns="http://www.w3.org/2000/svg" viewBox="-30 -30 400 400" width="160" height="160" role="img" aria-label="Finn"><defs><clipPath id="peek-19hase3-f"><rect x="-30" y="-30" width="400" height="400"/></clipPath><filter id="peek-19hase3-pA" x="-20%" y="-20%" width="140%" height="140%" color-interpolation-filters="sRGB"><feTurbulence type="fractalNoise" baseFrequency="0.032" numOctaves="2" seed="4" result="warp"/><feDisplacementMap in="SourceGraphic" in2="warp" scale="0.11" xChannelSelector="R" yChannelSelector="G" result="moved"/><feTurbulence type="fractalNoise" baseFrequency="0.85" numOctaves="2" seed="11" result="grain"/><feColorMatrix in="grain" type="matrix" values="0 0 0 0 0  0 0 0 0 0  0 0 0 0 0  -0.009 0 0 0 1.007" result="mask"/><feComposite in="moved" in2="mask" operator="in"/></filter><filter id="peek-19hase3-pB" x="-20%" y="-20%" width="140%" height="140%" color-interpolation-filters="sRGB"><feTurbulence type="fractalNoise" baseFrequency="0.032" numOctaves="2" seed="9" result="warp"/><feDisplacementMap in="SourceGraphic" in2="warp" scale="0.08" xChannelSelector="R" yChannelSelector="G" result="moved"/><feTurbulence type="fractalNoise" baseFrequency="0.85" numOctaves="2" seed="23" result="grain"/><feColorMatrix in="grain" type="matrix" values="0 0 0 0 0  0 0 0 0 0  0 0 0 0 0  -0.009 0 0 0 1.007" result="mask"/><feComposite in="moved" in2="mask" operator="in"/></filter><filter id="peek-19hase3-grain" x="0" y="0" width="1" height="1" color-interpolation-filters="sRGB"><feTurbulence type="fractalNoise" baseFrequency="0.9" numOctaves="2" seed="5"/><feColorMatrix type="matrix" values="0 0 0 0 0.953  0 0 0 0 0.941  0 0 0 0 0.91  7 0 0 0 -5.1"/></filter><clipPath id="peek-19hase3-e0"><ellipse cx="0" cy="0" rx="21.77" ry="29.02"/></clipPath><clipPath id="peek-19hase3-l0"><ellipse cx="0" cy="0" rx="23.37" ry="30.62"/></clipPath><clipPath id="peek-19hase3-e1"><ellipse cx="0" cy="0" rx="21.77" ry="29.02"/></clipPath><clipPath id="peek-19hase3-l1"><ellipse cx="0" cy="0" rx="23.37" ry="30.62"/></clipPath></defs><g clip-path="url(#peek-19hase3-f)"><rect x="-30" y="-30" width="400" height="400" fill="#1A1918"/><g transform="translate(0 41.9) rotate(-0.53 170 312.8) translate(170 312.8) scale(1 1.03) translate(-170 -312.8)"><g transform="translate(-0.05 0.04)" filter="url(#peek-19hase3-pA)"><path d="M170 40.8L312.8 299.2L27.2 299.2Z" fill="#F1CDBF" stroke="#F1CDBF" stroke-width="27.2" stroke-linejoin="round"/><g transform="translate(136.81 85.15) rotate(-48.07)"><path d="M0 0L0 -40A40 40 0 0 1 40 0Z" fill="#E2A893"/></g></g><g transform="translate(0.05 -0.04)" filter="url(#peek-19hase3-pB)"><g transform="translate(134.52 211.7)"><g clip-path="url(#peek-19hase3-e0)"><circle cx="5.14" cy="1.75" r="12.39" fill="#1A1918"/><circle cx="10.59" cy="-3.71" r="3.22" fill="#FFFDF8" opacity="1"/></g><g clip-path="url(#peek-19hase3-l0)"><rect x="-47.89" y="-87.07" width="95.77" height="56.44" transform="rotate(0)" fill="#F1CDBF"/><ellipse cx="0" cy="64" rx="33.74" ry="33.38" fill="#F1CDBF"/></g></g><g transform="translate(214.32 211.7)"><g clip-path="url(#peek-19hase3-e1)"><circle cx="5.14" cy="1.75" r="12.39" fill="#1A1918"/><circle cx="10.59" cy="-3.71" r="3.22" fill="#FFFDF8" opacity="1"/></g><g clip-path="url(#peek-19hase3-l1)"><rect x="-47.89" y="-87.07" width="95.77" height="56.44" transform="rotate(0)" fill="#F1CDBF"/><ellipse cx="0" cy="64" rx="33.74" ry="33.38" fill="#F1CDBF"/></g></g><path d="M-7.85 0Q0 -3.52 7.85 0" transform="translate(130.1 156.78) rotate(-4.51)" fill="none" stroke="#1A1918" stroke-linecap="round" stroke-linejoin="round" stroke-width="9.29"/><path d="M-7.85 0Q0 -3.52 7.85 0" transform="translate(209.9 156.78) rotate(4.51)" fill="none" stroke="#1A1918" stroke-linecap="round" stroke-linejoin="round" stroke-width="9.29"/><path d="M-8.23 0L-5.92 6.5L5.92 6.5L8.23 0L5.92 0L-5.92 0Z" transform="translate(170 256.1) rotate(0)" fill="#1A1918" stroke="#1A1918" stroke-linecap="round" stroke-linejoin="round" stroke-width="4.38"/></g></g><rect x="-30" y="-30" width="400" height="400" filter="url(#peek-19hase3-grain)" opacity="0.3" pointer-events="none"/></g></svg><svg x="480" y="0" xmlns="http://www.w3.org/2000/svg" viewBox="-30 -30 400 400" width="160" height="160" role="img" aria-label="Nia"><defs><clipPath id="peek-1girl1q-f"><rect x="-30" y="-30" width="400" height="400"/></clipPath><filter id="peek-1girl1q-pA" x="-20%" y="-20%" width="140%" height="140%" color-interpolation-filters="sRGB"><feTurbulence type="fractalNoise" baseFrequency="0.032" numOctaves="2" seed="4" result="warp"/><feDisplacementMap in="SourceGraphic" in2="warp" scale="0.11" xChannelSelector="R" yChannelSelector="G" result="moved"/><feTurbulence type="fractalNoise" baseFrequency="0.85" numOctaves="2" seed="11" result="grain"/><feColorMatrix in="grain" type="matrix" values="0 0 0 0 0  0 0 0 0 0  0 0 0 0 0  -0.009 0 0 0 1.007" result="mask"/><feComposite in="moved" in2="mask" operator="in"/></filter><filter id="peek-1girl1q-pB" x="-20%" y="-20%" width="140%" height="140%" color-interpolation-filters="sRGB"><feTurbulence type="fractalNoise" baseFrequency="0.032" numOctaves="2" seed="9" result="warp"/><feDisplacementMap in="SourceGraphic" in2="warp" scale="0.08" xChannelSelector="R" yChannelSelector="G" result="moved"/><feTurbulence type="fractalNoise" baseFrequency="0.85" numOctaves="2" seed="23" result="grain"/><feColorMatrix in="grain" type="matrix" values="0 0 0 0 0  0 0 0 0 0  0 0 0 0 0  -0.009 0 0 0 1.007" result="mask"/><feComposite in="moved" in2="mask" operator="in"/></filter><filter id="peek-1girl1q-grain" x="0" y="0" width="1" height="1" color-interpolation-filters="sRGB"><feTurbulence type="fractalNoise" baseFrequency="0.9" numOctaves="2" seed="5"/><feColorMatrix type="matrix" values="0 0 0 0 0.953  0 0 0 0 0.941  0 0 0 0 0.91  7 0 0 0 -5.1"/></filter><clipPath id="peek-1girl1q-e0"><ellipse cx="0" cy="0" rx="30.35" ry="30.35"/></clipPath><clipPath id="peek-1girl1q-l0"><ellipse cx="0" cy="0" rx="31.95" ry="31.95"/></clipPath><clipPath id="peek-1girl1q-e1"><ellipse cx="0" cy="0" rx="30.35" ry="30.35"/></clipPath><clipPath id="peek-1girl1q-l1"><ellipse cx="0" cy="0" rx="31.95" ry="31.95"/></clipPath></defs><g clip-path="url(#peek-1girl1q-f)"><rect x="-30" y="-30" width="400" height="400" fill="#1A1918"/><g transform="translate(0 53.46) rotate(2.31 170 320) translate(170 320) scale(1 1) translate(-170 -320)"><g transform="translate(-0.05 0.04)" filter="url(#peek-1girl1q-pA)"><circle cx="170" cy="170" r="150" fill="#CFE7D6"/><ellipse cx="84.2" cy="203.8" rx="11.7" ry="5.85" fill="#A5CDB1" opacity="1" transform="translate(83.05 201.8) scale(1) translate(-84.2 -203.8)"/><ellipse cx="255.8" cy="203.8" rx="11.7" ry="5.85" fill="#A5CDB1" opacity="1" transform="translate(256.95 201.8) scale(1) translate(-255.8 -203.8)"/><g transform="translate(109.02 39.55) rotate(0.94)"><path d="M0 0L0 -40A40 40 0 0 1 40 0Z" fill="#A5CDB1"/></g></g><g transform="translate(0.05 -0.04)" filter="url(#peek-1girl1q-pB)"><g transform="translate(110.89 162.2)"><g clip-path="url(#peek-1girl1q-e0)"><ellipse cx="0" cy="0" rx="30.35" ry="30.35" fill="#FFFDF8"/><circle cx="-1.06" cy="0" r="14.18" fill="#1A1918"/><circle cx="5.17" cy="-6.24" r="4.25" fill="#FFFDF8" opacity="1"/></g><g clip-path="url(#peek-1girl1q-l0)"><rect x="-66.78" y="-91.06" width="133.56" height="59.11" transform="rotate(0)" fill="#CFE7D6"/><ellipse cx="0" cy="44.1" rx="47.05" ry="34.91" fill="#CFE7D6"/></g></g><g transform="translate(229.11 162.2)"><g clip-path="url(#peek-1girl1q-e1)"><ellipse cx="0" cy="0" rx="30.35" ry="30.35" fill="#FFFDF8"/><circle cx="-1.06" cy="0" r="14.18" fill="#1A1918"/><circle cx="5.17" cy="-6.24" r="4.25" fill="#FFFDF8" opacity="1"/></g><g clip-path="url(#peek-1girl1q-l1)"><rect x="-66.78" y="-91.06" width="133.56" height="59.11" transform="rotate(0)" fill="#CFE7D6"/><ellipse cx="0" cy="44.1" rx="47.05" ry="34.91" fill="#CFE7D6"/></g></g><path d="M-23.4 -1.24Q0 -19.25 23.4 -4.67L23.4 4.67Q0 -10.39 -23.4 1.24Z" transform="translate(110.89 99.36) rotate(3.96)" fill="#1A1918" stroke="#1A1918" stroke-linejoin="round" stroke-width="2.47"/><path d="M-23.4 -4.67Q0 -19.25 23.4 -1.24L23.4 1.24Q0 -10.39 -23.4 4.67Z" transform="translate(229.11 99.36) rotate(-3.96)" fill="#1A1918" stroke="#1A1918" stroke-linejoin="round" stroke-width="2.47"/><path d="M-22.35 0C-11.18 14.65 11.18 14.65 22.35 0" transform="translate(170 223.15) rotate(0)" fill="none" stroke="#1A1918" stroke-linecap="round" stroke-linejoin="round" stroke-width="5.85"/></g></g><rect x="-30" y="-30" width="400" height="400" filter="url(#peek-1girl1q-grain)" opacity="0.3" pointer-events="none"/></g></svg><svg x="640" y="0" xmlns="http://www.w3.org/2000/svg" viewBox="-30 -30 400 400" width="160" height="160" role="img" aria-label="Max"><defs><clipPath id="peek-6yk5sv-f"><rect x="-30" y="-30" width="400" height="400"/></clipPath><filter id="peek-6yk5sv-pA" x="-20%" y="-20%" width="140%" height="140%" color-interpolation-filters="sRGB"><feTurbulence type="fractalNoise" baseFrequency="0.032" numOctaves="2" seed="4" result="warp"/><feDisplacementMap in="SourceGraphic" in2="warp" scale="0.11" xChannelSelector="R" yChannelSelector="G" result="moved"/><feTurbulence type="fractalNoise" baseFrequency="0.85" numOctaves="2" seed="11" result="grain"/><feColorMatrix in="grain" type="matrix" values="0 0 0 0 0  0 0 0 0 0  0 0 0 0 0  -0.009 0 0 0 1.007" result="mask"/><feComposite in="moved" in2="mask" operator="in"/></filter><filter id="peek-6yk5sv-pB" x="-20%" y="-20%" width="140%" height="140%" color-interpolation-filters="sRGB"><feTurbulence type="fractalNoise" baseFrequency="0.032" numOctaves="2" seed="9" result="warp"/><feDisplacementMap in="SourceGraphic" in2="warp" scale="0.08" xChannelSelector="R" yChannelSelector="G" result="moved"/><feTurbulence type="fractalNoise" baseFrequency="0.85" numOctaves="2" seed="23" result="grain"/><feColorMatrix in="grain" type="matrix" values="0 0 0 0 0  0 0 0 0 0  0 0 0 0 0  -0.009 0 0 0 1.007" result="mask"/><feComposite in="moved" in2="mask" operator="in"/></filter><filter id="peek-6yk5sv-grain" x="0" y="0" width="1" height="1" color-interpolation-filters="sRGB"><feTurbulence type="fractalNoise" baseFrequency="0.9" numOctaves="2" seed="5"/><feColorMatrix type="matrix" values="0 0 0 0 0.953  0 0 0 0 0.941  0 0 0 0 0.91  7 0 0 0 -5.1"/></filter><clipPath id="peek-6yk5sv-e0"><ellipse cx="0" cy="0" rx="23.04" ry="31.68"/></clipPath><clipPath id="peek-6yk5sv-l0"><ellipse cx="0" cy="0" rx="24.64" ry="33.28"/></clipPath><clipPath id="peek-6yk5sv-e1"><ellipse cx="0" cy="0" rx="23.04" ry="31.68"/></clipPath><clipPath id="peek-6yk5sv-l1"><ellipse cx="0" cy="0" rx="24.64" ry="33.28"/></clipPath></defs><g clip-path="url(#peek-6yk5sv-f)"><rect x="-30" y="-30" width="400" height="400" fill="#1A1918"/><g transform="translate(0 31.4) rotate(-2.78 170 320) translate(170 320) scale(1 1) translate(-170 -320)"><g transform="translate(-0.05 0.04)" filter="url(#peek-6yk5sv-pA)"><path d="M170 20L320 170L170 320L20 170Z" fill="#ECE2B9"/><g transform="translate(170 -13.9) rotate(49.37)"><rect x="-11" y="-11" width="22" height="22" fill="#D9C284"/></g></g><g transform="translate(0.05 -0.04)" filter="url(#peek-6yk5sv-pB)"><g transform="translate(127.91 155.9)"><g clip-path="url(#peek-6yk5sv-e0)"><circle cx="-4.15" cy="1.81" r="10.86" fill="#1A1918"/><circle cx="0.63" cy="-2.97" r="2.82" fill="#FFFDF8" opacity="0.8"/></g><g clip-path="url(#peek-6yk5sv-l0)"><rect x="-50.69" y="-95.04" width="101.38" height="61.76" transform="rotate(0)" fill="#ECE2B9"/><ellipse cx="0" cy="69.71" rx="35.71" ry="36.43" fill="#ECE2B9"/></g></g><g transform="translate(204.81 155.9)"><g clip-path="url(#peek-6yk5sv-e1)"><circle cx="-4.15" cy="1.81" r="10.86" fill="#1A1918"/><circle cx="0.63" cy="-2.97" r="2.82" fill="#FFFDF8" opacity="0.8"/></g><g clip-path="url(#peek-6yk5sv-l1)"><rect x="-50.69" y="-95.04" width="101.38" height="61.76" transform="rotate(0)" fill="#ECE2B9"/><ellipse cx="0" cy="69.71" rx="35.71" ry="36.43" fill="#ECE2B9"/></g></g><path d="M-18.75 0Q0 -15.3 18.75 0" transform="translate(131.55 82.65) rotate(-3.99)" fill="none" stroke="#1A1918" stroke-linecap="round" stroke-linejoin="round" stroke-width="5.28"/><path d="M-18.75 0Q0 -15.3 18.75 0" transform="translate(208.45 82.65) rotate(3.99)" fill="none" stroke="#1A1918" stroke-linecap="round" stroke-linejoin="round" stroke-width="5.28"/><path d="M-8 0L0 -10.07L8 0L0 10.07Z" transform="translate(170 218.46) rotate(0)" fill="#1A1918" stroke="#1A1918" stroke-linecap="round" stroke-linejoin="round" stroke-width="4.38"/></g></g><rect x="-30" y="-30" width="400" height="400" filter="url(#peek-6yk5sv-grain)" opacity="0.3" pointer-events="none"/></g></svg><svg x="800" y="0" xmlns="http://www.w3.org/2000/svg" viewBox="-30 -30 400 400" width="160" height="160" role="img" aria-label="Uma"><defs><clipPath id="peek-7akz2z-f"><rect x="-30" y="-30" width="400" height="400"/></clipPath><filter id="peek-7akz2z-pA" x="-20%" y="-20%" width="140%" height="140%" color-interpolation-filters="sRGB"><feTurbulence type="fractalNoise" baseFrequency="0.032" numOctaves="2" seed="4" result="warp"/><feDisplacementMap in="SourceGraphic" in2="warp" scale="0.11" xChannelSelector="R" yChannelSelector="G" result="moved"/><feTurbulence type="fractalNoise" baseFrequency="0.85" numOctaves="2" seed="11" result="grain"/><feColorMatrix in="grain" type="matrix" values="0 0 0 0 0  0 0 0 0 0  0 0 0 0 0  -0.009 0 0 0 1.007" result="mask"/><feComposite in="moved" in2="mask" operator="in"/></filter><filter id="peek-7akz2z-pB" x="-20%" y="-20%" width="140%" height="140%" color-interpolation-filters="sRGB"><feTurbulence type="fractalNoise" baseFrequency="0.032" numOctaves="2" seed="9" result="warp"/><feDisplacementMap in="SourceGraphic" in2="warp" scale="0.08" xChannelSelector="R" yChannelSelector="G" result="moved"/><feTurbulence type="fractalNoise" baseFrequency="0.85" numOctaves="2" seed="23" result="grain"/><feColorMatrix in="grain" type="matrix" values="0 0 0 0 0  0 0 0 0 0  0 0 0 0 0  -0.009 0 0 0 1.007" result="mask"/><feComposite in="moved" in2="mask" operator="in"/></filter><filter id="peek-7akz2z-grain" x="0" y="0" width="1" height="1" color-interpolation-filters="sRGB"><feTurbulence type="fractalNoise" baseFrequency="0.9" numOctaves="2" seed="5"/><feColorMatrix type="matrix" values="0 0 0 0 0.953  0 0 0 0 0.941  0 0 0 0 0.91  7 0 0 0 -5.1"/></filter><clipPath id="peek-7akz2z-e0"><ellipse cx="0" cy="0" rx="19.79" ry="26.38"/></clipPath><clipPath id="peek-7akz2z-l0"><ellipse cx="0" cy="0" rx="21.39" ry="27.98"/></clipPath><clipPath id="peek-7akz2z-e1"><ellipse cx="0" cy="0" rx="19.79" ry="26.38"/></clipPath><clipPath id="peek-7akz2z-l1"><ellipse cx="0" cy="0" rx="21.39" ry="27.98"/></clipPath></defs><g clip-path="url(#peek-7akz2z-f)"><rect x="-30" y="-30" width="400" height="400" fill="#1A1918"/><g transform="translate(0 62.3) rotate(-8.65 170 312.8) translate(170 312.8) scale(1 1) translate(-170 -312.8)"><g transform="translate(-0.05 0.04)" filter="url(#peek-7akz2z-pA)"><path d="M170 40.8L312.8 299.2L27.2 299.2Z" fill="#D8CDF0" stroke="#D8CDF0" stroke-width="27.2" stroke-linejoin="round"/><g transform="translate(170 14.34) scale(1)"><circle cx="0" cy="0" r="12.5" fill="#BDAEE6"/></g></g><g transform="translate(0.05 -0.04)" filter="url(#peek-7akz2z-pB)"><g transform="translate(131.66 211.7)"><g clip-path="url(#peek-7akz2z-e0)"><circle cx="-6.56" cy="1.75" r="11" fill="#1A1918"/><circle cx="-1.72" cy="-3.09" r="2.86" fill="#FFFDF8" opacity="0.3"/></g><g clip-path="url(#peek-7akz2z-l0)"><rect x="-43.53" y="-79.15" width="87.07" height="79.15" transform="rotate(4)" fill="#D8CDF0"/><ellipse cx="0" cy="58.33" rx="30.67" ry="30.34" fill="#D8CDF0"/></g></g><g transform="translate(197.06 211.7)"><g clip-path="url(#peek-7akz2z-e1)"><circle cx="-6.56" cy="1.75" r="11" fill="#1A1918"/><circle cx="-1.72" cy="-3.09" r="2.86" fill="#FFFDF8" opacity="0.3"/></g><g clip-path="url(#peek-7akz2z-l1)"><rect x="-43.53" y="-79.15" width="87.07" height="58.78" transform="rotate(-4)" fill="#D8CDF0"/><ellipse cx="0" cy="58.33" rx="30.67" ry="30.34" fill="#D8CDF0"/></g></g><path d="M-7.85 0Q0 -1.95 7.85 0" transform="translate(137.3 168.07) rotate(6.91)" fill="none" stroke="#1A1918" stroke-linecap="round" stroke-linejoin="round" stroke-width="9.93"/><path d="M-7.85 0Q0 -1.95 7.85 0" transform="translate(202.7 153.77) rotate(-6.91)" fill="none" stroke="#1A1918" stroke-linecap="round" stroke-linejoin="round" stroke-width="9.93"/><path d="M-10.71 0L-7.71 1.95L7.71 1.95L10.71 0L7.71 -1.62L-7.71 -1.62Z" transform="translate(175 253.66) rotate(13)" fill="#1A1918" stroke="#1A1918" stroke-linecap="round" stroke-linejoin="round" stroke-width="4.38"/></g></g><rect x="-30" y="-30" width="400" height="400" filter="url(#peek-7akz2z-grain)" opacity="0.3" pointer-events="none"/></g></svg><svg x="960" y="0" xmlns="http://www.w3.org/2000/svg" viewBox="-30 -30 400 400" width="160" height="160" role="img" aria-label="Lan"><defs><clipPath id="peek-1ewn0xw-f"><rect x="-30" y="-30" width="400" height="400"/></clipPath><filter id="peek-1ewn0xw-pA" x="-20%" y="-20%" width="140%" height="140%" color-interpolation-filters="sRGB"><feTurbulence type="fractalNoise" baseFrequency="0.032" numOctaves="2" seed="4" result="warp"/><feDisplacementMap in="SourceGraphic" in2="warp" scale="0.11" xChannelSelector="R" yChannelSelector="G" result="moved"/><feTurbulence type="fractalNoise" baseFrequency="0.85" numOctaves="2" seed="11" result="grain"/><feColorMatrix in="grain" type="matrix" values="0 0 0 0 0  0 0 0 0 0  0 0 0 0 0  -0.009 0 0 0 1.007" result="mask"/><feComposite in="moved" in2="mask" operator="in"/></filter><filter id="peek-1ewn0xw-pB" x="-20%" y="-20%" width="140%" height="140%" color-interpolation-filters="sRGB"><feTurbulence type="fractalNoise" baseFrequency="0.032" numOctaves="2" seed="9" result="warp"/><feDisplacementMap in="SourceGraphic" in2="warp" scale="0.08" xChannelSelector="R" yChannelSelector="G" result="moved"/><feTurbulence type="fractalNoise" baseFrequency="0.85" numOctaves="2" seed="23" result="grain"/><feColorMatrix in="grain" type="matrix" values="0 0 0 0 0  0 0 0 0 0  0 0 0 0 0  -0.009 0 0 0 1.007" result="mask"/><feComposite in="moved" in2="mask" operator="in"/></filter><filter id="peek-1ewn0xw-grain" x="0" y="0" width="1" height="1" color-interpolation-filters="sRGB"><feTurbulence type="fractalNoise" baseFrequency="0.9" numOctaves="2" seed="5"/><feColorMatrix type="matrix" values="0 0 0 0 0.953  0 0 0 0 0.941  0 0 0 0 0.91  7 0 0 0 -5.1"/></filter><clipPath id="peek-1ewn0xw-e0"><ellipse cx="0" cy="0" rx="28.8" ry="24"/></clipPath><clipPath id="peek-1ewn0xw-l0"><ellipse cx="0" cy="0" rx="30.4" ry="25.6"/></clipPath><clipPath id="peek-1ewn0xw-e1"><ellipse cx="0" cy="0" rx="28.8" ry="24"/></clipPath><clipPath id="peek-1ewn0xw-l1"><ellipse cx="0" cy="0" rx="30.4" ry="25.6"/></clipPath></defs><g clip-path="url(#peek-1ewn0xw-f)"><rect x="-30" y="-30" width="400" height="400" fill="#1A1918"/><g transform="translate(0 204.6) rotate(-2.41 170 255) translate(170 255) scale(1 1) translate(-170 -255)"><g transform="translate(-0.05 0.04)" filter="url(#peek-1ewn0xw-pA)"><path d="M0 255A170 170 0 0 1 340 255Z" fill="#BDE1E5"/><g transform="translate(301.55 135.09) scale(1)"><circle cx="0" cy="0" r="12.5" fill="none" stroke="#8FC7D1" stroke-width="7"/></g></g><g transform="translate(0.05 -0.04)" filter="url(#peek-1ewn0xw-pB)"><g transform="translate(102.49 175)"><g clip-path="url(#peek-1ewn0xw-e0)"><ellipse cx="0" cy="0" rx="28.8" ry="24" fill="#FFFDF8"/><circle cx="-15.52" cy="1.65" r="10.02" fill="#1A1918"/><ellipse cx="0" cy="0" rx="26.55" ry="21.75" fill="none" stroke="#1A1918" stroke-width="4.5"/></g><g clip-path="url(#peek-1ewn0xw-l0)"><rect x="-63.36" y="-72" width="126.72" height="97.6" transform="rotate(-4)" fill="#BDE1E5"/><ellipse cx="0" cy="53.2" rx="44.64" ry="27.6" fill="#BDE1E5"/></g><g clip-path="url(#peek-1ewn0xw-e0)" fill="none" stroke="#1A1918" stroke-width="4.5"><path d="M-63.36 25.6H63.36" transform="rotate(-4)" opacity="1"/></g><path d="M-26.5 21Q0 29 26.5 21" transform="rotate(-2.4)" fill="none" stroke="#1A1918" stroke-linecap="round" stroke-width="4.78" opacity="1"/></g><g transform="translate(237.51 175)"><g clip-path="url(#peek-1ewn0xw-e1)"><ellipse cx="0" cy="0" rx="28.8" ry="24" fill="#FFFDF8"/><circle cx="-15.52" cy="1.65" r="10.02" fill="#1A1918"/><ellipse cx="0" cy="0" rx="26.55" ry="21.75" fill="none" stroke="#1A1918" stroke-width="4.5"/></g><g clip-path="url(#peek-1ewn0xw-l1)"><rect x="-63.36" y="-72" width="126.72" height="97.6" transform="rotate(4)" fill="#BDE1E5"/><ellipse cx="0" cy="53.2" rx="44.64" ry="27.6" fill="#BDE1E5"/></g><g clip-path="url(#peek-1ewn0xw-e1)" fill="none" stroke="#1A1918" stroke-width="4.5"><path d="M-63.36 25.6H63.36" transform="rotate(4)" opacity="1"/></g><path d="M-26.5 21Q0 29 26.5 21" transform="rotate(2.4)" fill="none" stroke="#1A1918" stroke-linecap="round" stroke-width="4.78" opacity="1"/></g><path d="M-22.5 0Q0 -0.04 22.5 0" transform="translate(102.49 131.64) rotate(-4.4)" fill="none" stroke="#1A1918" stroke-linecap="round" stroke-linejoin="round" stroke-width="9.91"/><path d="M-22.5 0Q0 -0.04 22.5 0" transform="translate(237.51 131.64) rotate(4.4)" fill="none" stroke="#1A1918" stroke-linecap="round" stroke-linejoin="round" stroke-width="9.91"/><path d="M-6.31 0C-6.31 6.5 6.31 6.5 6.31 0C6.31 -6.5 -6.31 -6.5 -6.31 0Z" transform="translate(170 224.13) rotate(0)" fill="#1A1918" stroke="#1A1918" stroke-linecap="round" stroke-linejoin="round" stroke-width="4.38"/></g></g><rect x="-30" y="-30" width="400" height="400" filter="url(#peek-1ewn0xw-grain)" opacity="0.3" pointer-events="none"/></g></svg><g font-family="ui-monospace, SFMono-Regular, Menlo, monospace" font-size="13" letter-spacing="1" fill="#F3F0E8" fill-opacity="0.6" text-anchor="middle"></g></g></svg>
