<svg xmlns="http://www.w3.org/2000/svg" viewBox="0 0 840 344" width="840" height="344" role="img" aria-label="Twelve names, twelve Peek faces"><clipPath id="sheet"><rect width="840" height="344" rx="16"/></clipPath><g clip-path="url(#sheet)"><rect width="840" height="344" fill="#1A1918"/><svg x="0" y="0" xmlns="http://www.w3.org/2000/svg" viewBox="-30 -30 400 400" width="140" height="140" role="img" aria-label="Ada"><defs><clipPath id="peek-f3hcya-f"><rect x="-30" y="-30" width="400" height="400"/></clipPath><clipPath id="peek-f3hcya-e0"><ellipse cx="0" cy="0" rx="31.4" ry="31.4"/></clipPath><clipPath id="peek-f3hcya-l0"><ellipse cx="0" cy="0" rx="32.99" ry="32.99"/></clipPath><clipPath id="peek-f3hcya-e1"><ellipse cx="0" cy="0" rx="31.4" ry="31.4"/></clipPath><clipPath id="peek-f3hcya-l1"><ellipse cx="0" cy="0" rx="32.99" ry="32.99"/></clipPath></defs><g clip-path="url(#peek-f3hcya-f)"><rect x="-30" y="-30" width="400" height="400" fill="#1A1918"/><g transform="translate(0 70) rotate(-2.93 170 320) translate(170 320) scale(1 1) translate(-170 -320)"><g><circle cx="170" cy="170" r="150" fill="#D8CDF0"/><g transform="translate(109.02 39.55) rotate(-29.46)"><path d="M0 0L0 -40A40 40 0 0 1 40 0Z" fill="#BDAEE6"/></g></g><g><g transform="translate(112.37 162.2)"><g clip-path="url(#peek-f3hcya-e0)"><ellipse cx="0" cy="0" rx="31.4" ry="31.4" fill="#FFFDF8"/><circle cx="-0.46" cy="0" r="11.7" fill="#1A1918"/><circle cx="4.69" cy="-5.15" r="3.51" fill="#FFFDF8" opacity="0.7"/></g><g clip-path="url(#peek-f3hcya-l0)"><rect x="-69.07" y="-94.18" width="138.14" height="67.79" transform="rotate(0)" fill="#D8CDF0"/><ellipse cx="0" cy="69.1" rx="48.66" ry="36.1" fill="#D8CDF0"/></g></g><g transform="translate(227.63 162.2)"><g clip-path="url(#peek-f3hcya-e1)"><ellipse cx="0" cy="0" rx="31.4" ry="31.4" fill="#FFFDF8"/><circle cx="-0.46" cy="0" r="11.7" fill="#1A1918"/><circle cx="4.69" cy="-5.15" r="3.51" fill="#FFFDF8" opacity="0.7"/></g><g clip-path="url(#peek-f3hcya-l1)"><rect x="-69.07" y="-94.18" width="138.14" height="67.79" transform="rotate(0)" fill="#D8CDF0"/><ellipse cx="0" cy="69.1" rx="48.66" ry="36.1" fill="#D8CDF0"/></g></g><path d="M-23.4 -1.41Q0 -8.95 23.4 -5.32L23.4 5.32Q0 1.15 -23.4 1.41Z" transform="translate(112.37 106.34) rotate(-4.34)" fill="#1A1918" stroke="#1A1918" stroke-linejoin="round" stroke-width="2.82"/><path d="M-23.4 -5.32Q0 -8.95 23.4 -1.41L23.4 1.41Q0 1.15 -23.4 5.32Z" transform="translate(227.63 106.34) rotate(4.34)" fill="#1A1918" stroke="#1A1918" stroke-linejoin="round" stroke-width="2.82"/><path d="M-11.92 0C-5.96 5.63 5.96 5.63 11.92 0" transform="translate(170 225.44) rotate(0)" fill="none" stroke="#1A1918" stroke-linecap="round" stroke-linejoin="round" stroke-width="5.85"/></g></g></g></svg><svg x="140" y="0" xmlns="http://www.w3.org/2000/svg" viewBox="-30 -30 400 400" width="140" height="140" role="img" aria-label="Bao"><defs><clipPath id="peek-1a69qsy-f"><rect x="-30" y="-30" width="400" height="400"/></clipPath><clipPath id="peek-1a69qsy-e0"><ellipse cx="0" cy="0" rx="20.4" ry="28.05"/></clipPath><clipPath id="peek-1a69qsy-l0"><ellipse cx="0" cy="0" rx="22" ry="29.65"/></clipPath><clipPath id="peek-1a69qsy-e1"><ellipse cx="0" cy="0" rx="20.4" ry="28.05"/></clipPath><clipPath id="peek-1a69qsy-l1"><ellipse cx="0" cy="0" rx="22" ry="29.65"/></clipPath></defs><g clip-path="url(#peek-1a69qsy-f)"><rect x="-30" y="-30" width="400" height="400" fill="#1A1918"/><g transform="translate(0 80) rotate(1.42 170 320) translate(170 320) scale(1 1) translate(-170 -320)"><g><path d="M170 20L320 170L170 320L20 170Z" fill="#BDE1E5"/><g transform="translate(170 14.2) rotate(0) scale(1.02)"><path d="M0 -27L13 -3L-13 -3Z" fill="#8FC7D1" stroke="#8FC7D1" stroke-width="6" stroke-linejoin="round"/></g></g><g><g transform="translate(136 155)"><g clip-path="url(#peek-1a69qsy-e0)"><ellipse cx="0" cy="0" rx="20.4" ry="28.05" fill="#FFFDF8"/><circle cx="-1.08" cy="0" r="11.1" fill="#1A1918"/><circle cx="3.8" cy="-4.88" r="3.33" fill="#FFFDF8" opacity="0.7"/><ellipse cx="0" cy="0" rx="18.15" ry="25.8" fill="none" stroke="#1A1918" stroke-width="4.5"/></g><g clip-path="url(#peek-1a69qsy-l0)"><rect x="-44.88" y="-84.15" width="89.76" height="60.43" transform="rotate(0)" fill="#BDE1E5"/><ellipse cx="0" cy="61.91" rx="31.62" ry="32.26" fill="#BDE1E5"/></g><g clip-path="url(#peek-1a69qsy-e0)" fill="none" stroke="#1A1918" stroke-width="4.5"><path d="M-44.88 -23.72H44.88" transform="rotate(0)" opacity="1"/></g></g><g transform="translate(204 155)"><g clip-path="url(#peek-1a69qsy-e1)"><ellipse cx="0" cy="0" rx="20.4" ry="28.05" fill="#FFFDF8"/><circle cx="-1.08" cy="0" r="11.1" fill="#1A1918"/><circle cx="3.8" cy="-4.88" r="3.33" fill="#FFFDF8" opacity="0.7"/><ellipse cx="0" cy="0" rx="18.15" ry="25.8" fill="none" stroke="#1A1918" stroke-width="4.5"/></g><g clip-path="url(#peek-1a69qsy-l1)"><rect x="-44.88" y="-84.15" width="89.76" height="60.43" transform="rotate(0)" fill="#BDE1E5"/><ellipse cx="0" cy="61.91" rx="31.62" ry="32.26" fill="#BDE1E5"/></g><g clip-path="url(#peek-1a69qsy-e1)" fill="none" stroke="#1A1918" stroke-width="4.5"><path d="M-44.88 -23.72H44.88" transform="rotate(0)" opacity="1"/></g></g><path d="M-18.75 0Q0 -7.5 18.75 0" transform="translate(136 99.67) rotate(-2.72)" fill="none" stroke="#1A1918" stroke-linecap="round" stroke-linejoin="round" stroke-width="6.58"/><path d="M-18.75 0Q0 -7.5 18.75 0" transform="translate(204 99.67) rotate(2.72)" fill="none" stroke="#1A1918" stroke-linecap="round" stroke-linejoin="round" stroke-width="6.58"/><path d="M-10.91 0L0 0L10.91 0L0 8.13Z" transform="translate(170 217.39) rotate(0)" fill="#1A1918" stroke="#1A1918" stroke-linecap="round" stroke-linejoin="round" stroke-width="4.38"/></g></g></g></svg><svg x="280" y="0" xmlns="http://www.w3.org/2000/svg" viewBox="-30 -30 400 400" width="140" height="140" role="img" aria-label="Cy"><defs><clipPath id="peek-fwbb5m-f"><rect x="-30" y="-30" width="400" height="400"/></clipPath><clipPath id="peek-fwbb5m-e0"><ellipse cx="0" cy="0" rx="31.1" ry="31.1"/></clipPath><clipPath id="peek-fwbb5m-l0"><ellipse cx="0" cy="0" rx="32.7" ry="32.7"/></clipPath><clipPath id="peek-fwbb5m-e1"><ellipse cx="0" cy="0" rx="31.1" ry="31.1"/></clipPath><clipPath id="peek-fwbb5m-l1"><ellipse cx="0" cy="0" rx="32.7" ry="32.7"/></clipPath></defs><g clip-path="url(#peek-fwbb5m-f)"><rect x="-30" y="-30" width="400" height="400" fill="#1A1918"/><g transform="translate(0 70) rotate(-0.59 170 320) translate(170 320) scale(1 1) translate(-170 -320)"><g><circle cx="170" cy="170" r="150" fill="#ECE2B9"/><g transform="translate(170 -0.4) rotate(18.32)"><rect x="-11" y="-11" width="22" height="22" fill="#D9C284"/></g></g><g><g transform="translate(105.97 162.2)"><g clip-path="url(#peek-fwbb5m-e0)"><ellipse cx="0" cy="0" rx="31.1" ry="31.1" fill="#FFFDF8"/><circle cx="0.3" cy="0" r="12.09" fill="#1A1918"/><circle cx="5.62" cy="-5.32" r="3.63" fill="#FFFDF8" opacity="0.7"/><ellipse cx="0" cy="0" rx="28.76" ry="28.76" fill="none" stroke="#1A1918" stroke-width="4.68"/></g><g clip-path="url(#peek-fwbb5m-l0)"><rect x="-68.41" y="-93.29" width="136.82" height="67.13" transform="rotate(0)" fill="#ECE2B9"/><ellipse cx="0" cy="68.46" rx="48.2" ry="35.76" fill="#ECE2B9"/></g><g clip-path="url(#peek-fwbb5m-e0)" fill="none" stroke="#1A1918" stroke-width="4.68"><path d="M-68.41 -26.16H68.41" transform="rotate(0)" opacity="1"/></g></g><g transform="translate(234.03 162.2)"><g clip-path="url(#peek-fwbb5m-e1)"><ellipse cx="0" cy="0" rx="31.1" ry="31.1" fill="#FFFDF8"/><circle cx="0.3" cy="0" r="12.09" fill="#1A1918"/><circle cx="5.62" cy="-5.32" r="3.63" fill="#FFFDF8" opacity="0.7"/><ellipse cx="0" cy="0" rx="28.76" ry="28.76" fill="none" stroke="#1A1918" stroke-width="4.68"/></g><g clip-path="url(#peek-fwbb5m-l1)"><rect x="-68.41" y="-93.29" width="136.82" height="67.13" transform="rotate(0)" fill="#ECE2B9"/><ellipse cx="0" cy="68.46" rx="48.2" ry="35.76" fill="#ECE2B9"/></g><g clip-path="url(#peek-fwbb5m-e1)" fill="none" stroke="#1A1918" stroke-width="4.68"><path d="M-68.41 -26.16H68.41" transform="rotate(0)" opacity="1"/></g></g><path d="M-23.4 -1.2Q0 -14.59 23.4 -4.52L23.4 4.52Q0 -6 -23.4 1.2Z" transform="translate(105.97 109.07) rotate(0.07)" fill="#1A1918" stroke="#1A1918" stroke-linejoin="round" stroke-width="2.4"/><path d="M-23.4 -4.52Q0 -14.59 23.4 -1.2L23.4 1.2Q0 -6 -23.4 4.52Z" transform="translate(234.03 109.07) rotate(-0.07)" fill="#1A1918" stroke="#1A1918" stroke-linejoin="round" stroke-width="2.4"/><path d="M-14.24 0C-7.12 5.63 7.12 5.63 14.24 0" transform="translate(170 225.59) rotate(0)" fill="none" stroke="#1A1918" stroke-linecap="round" stroke-linejoin="round" stroke-width="5.85"/></g></g></g></svg><svg x="420" y="0" xmlns="http://www.w3.org/2000/svg" viewBox="-30 -30 400 400" width="140" height="140" role="img" aria-label="Dev"><defs><clipPath id="peek-1g41e03-f"><rect x="-30" y="-30" width="400" height="400"/></clipPath><clipPath id="peek-1g41e03-e0"><ellipse cx="0" cy="0" rx="28.5" ry="23.75"/></clipPath><clipPath id="peek-1g41e03-l0"><ellipse cx="0" cy="0" rx="30.1" ry="25.35"/></clipPath><clipPath id="peek-1g41e03-e1"><ellipse cx="0" cy="0" rx="28.5" ry="23.75"/></clipPath><clipPath id="peek-1g41e03-l1"><ellipse cx="0" cy="0" rx="30.1" ry="25.35"/></clipPath></defs><g clip-path="url(#peek-1g41e03-f)"><rect x="-30" y="-30" width="400" height="400" fill="#1A1918"/><g transform="translate(0 115) rotate(1 170 255) translate(170 255) scale(1 1) translate(-170 -255)"><g><path d="M0 255A170 170 0 0 1 340 255Z" fill="#EFCAD7"/><g transform="translate(306.51 140.76) scale(1.02)"><circle cx="0" cy="0" r="12.5" fill="none" stroke="#DFA4BA" stroke-width="7"/></g></g><g><g transform="translate(99.43 175)"><g clip-path="url(#peek-1g41e03-e0)"><ellipse cx="0" cy="0" rx="28.5" ry="23.75" fill="#FFFDF8"/><circle cx="-0.34" cy="0" r="10.8" fill="#1A1918"/><circle cx="4.41" cy="-4.75" r="3.24" fill="#FFFDF8" opacity="0.7"/><ellipse cx="0" cy="0" rx="26.25" ry="21.5" fill="none" stroke="#1A1918" stroke-width="4.5"/></g><g clip-path="url(#peek-1g41e03-l0)"><rect x="-62.7" y="-71.25" width="125.4" height="50.97" transform="rotate(0)" fill="#EFCAD7"/><ellipse cx="0" cy="52.66" rx="44.18" ry="27.31" fill="#EFCAD7"/></g><g clip-path="url(#peek-1g41e03-e0)" fill="none" stroke="#1A1918" stroke-width="4.5"><path d="M-62.7 -20.28H62.7" transform="rotate(0)" opacity="1"/></g></g><g transform="translate(240.57 175)"><g clip-path="url(#peek-1g41e03-e1)"><ellipse cx="0" cy="0" rx="28.5" ry="23.75" fill="#FFFDF8"/><circle cx="-0.34" cy="0" r="10.8" fill="#1A1918"/><circle cx="4.41" cy="-4.75" r="3.24" fill="#FFFDF8" opacity="0.7"/><ellipse cx="0" cy="0" rx="26.25" ry="21.5" fill="none" stroke="#1A1918" stroke-width="4.5"/></g><g clip-path="url(#peek-1g41e03-l1)"><rect x="-62.7" y="-71.25" width="125.4" height="50.97" transform="rotate(0)" fill="#EFCAD7"/><ellipse cx="0" cy="52.66" rx="44.18" ry="27.31" fill="#EFCAD7"/></g><g clip-path="url(#peek-1g41e03-e1)" fill="none" stroke="#1A1918" stroke-width="4.5"><path d="M-62.7 -20.28H62.7" transform="rotate(0)" opacity="1"/></g></g><path d="M-22.5 0Q0 -1.8 22.5 0" transform="translate(99.43 131.41) rotate(1.1)" fill="none" stroke="#1A1918" stroke-linecap="round" stroke-linejoin="round" stroke-width="9.24"/><path d="M-22.5 0Q0 -1.8 22.5 0" transform="translate(240.57 131.41) rotate(-1.1)" fill="none" stroke="#1A1918" stroke-linecap="round" stroke-linejoin="round" stroke-width="9.24"/><path d="M-11 0C-11 10.83 11 10.83 11 0C11 0 -11 0 -11 0Z" transform="translate(170 224.14) rotate(0)" fill="#1A1918" stroke="#1A1918" stroke-linecap="round" stroke-linejoin="round" stroke-width="4.38"/></g></g></g></svg><svg x="560" y="0" xmlns="http://www.w3.org/2000/svg" viewBox="-30 -30 400 400" width="140" height="140" role="img" aria-label="Hana"><defs><clipPath id="peek-1bswr8r-f"><rect x="-30" y="-30" width="400" height="400"/></clipPath><clipPath id="peek-1bswr8r-e0"><ellipse cx="0" cy="0" rx="21.2" ry="29.15"/></clipPath><clipPath id="peek-1bswr8r-l0"><ellipse cx="0" cy="0" rx="22.8" ry="30.75"/></clipPath><clipPath id="peek-1bswr8r-e1"><ellipse cx="0" cy="0" rx="21.2" ry="29.15"/></clipPath><clipPath id="peek-1bswr8r-l1"><ellipse cx="0" cy="0" rx="22.8" ry="30.75"/></clipPath></defs><g clip-path="url(#peek-1bswr8r-f)"><rect x="-30" y="-30" width="400" height="400" fill="#1A1918"/><g transform="translate(0 80) rotate(-1.23 170 320) translate(170 320) scale(1 1) translate(-170 -320)"><g><path d="M170 20L320 170L170 320L20 170Z" fill="#EFCAD7"/><g transform="translate(170 -0.1) rotate(17.63)"><rect x="-11" y="-11" width="22" height="22" fill="#DFA4BA"/></g></g><g><g transform="translate(135.58 155)"><g clip-path="url(#peek-1bswr8r-e0)"><circle cx="-0.68" cy="0" r="12.83" fill="#1A1918"/><circle cx="4.96" cy="-5.64" r="3.34" fill="#FFFDF8" opacity="0.7"/></g><g clip-path="url(#peek-1bswr8r-l0)"><rect x="-46.64" y="-87.45" width="93.28" height="62.85" transform="rotate(0)" fill="#EFCAD7"/><ellipse cx="0" cy="64.27" rx="32.86" ry="33.52" fill="#EFCAD7"/></g></g><g transform="translate(203.22 155)"><g clip-path="url(#peek-1bswr8r-e1)"><circle cx="-0.68" cy="0" r="12.83" fill="#1A1918"/><circle cx="4.96" cy="-5.64" r="3.34" fill="#FFFDF8" opacity="0.7"/></g><g clip-path="url(#peek-1bswr8r-l1)"><rect x="-46.64" y="-87.45" width="93.28" height="62.85" transform="rotate(0)" fill="#EFCAD7"/><ellipse cx="0" cy="64.27" rx="32.86" ry="33.52" fill="#EFCAD7"/></g></g><path d="M-18.75 0Q0 -6.15 18.75 0" transform="translate(136.18 100.73) rotate(1.79)" fill="none" stroke="#1A1918" stroke-linecap="round" stroke-linejoin="round" stroke-width="6.24"/><path d="M-18.75 0Q0 -6.15 18.75 0" transform="translate(203.82 100.73) rotate(-1.79)" fill="none" stroke="#1A1918" stroke-linecap="round" stroke-linejoin="round" stroke-width="6.24"/><path d="M-11.02 0L0 0L11.02 0L0 8.13Z" transform="translate(170 220.73) rotate(0)" fill="#1A1918" stroke="#1A1918" stroke-linecap="round" stroke-linejoin="round" stroke-width="4.38"/></g></g></g></svg><svg x="700" y="0" xmlns="http://www.w3.org/2000/svg" viewBox="-30 -30 400 400" width="140" height="140" role="img" aria-label="Kai"><defs><clipPath id="peek-5th30e-f"><rect x="-30" y="-30" width="400" height="400"/></clipPath><clipPath id="peek-5th30e-e0"><ellipse cx="0" cy="0" rx="29.7" ry="24.75"/></clipPath><clipPath id="peek-5th30e-l0"><ellipse cx="0" cy="0" rx="31.3" ry="26.35"/></clipPath><clipPath id="peek-5th30e-e1"><ellipse cx="0" cy="0" rx="29.7" ry="24.75"/></clipPath><clipPath id="peek-5th30e-l1"><ellipse cx="0" cy="0" rx="31.3" ry="26.35"/></clipPath></defs><g clip-path="url(#peek-5th30e-f)"><rect x="-30" y="-30" width="400" height="400" fill="#1A1918"/><g transform="translate(0 115) rotate(2.08 170 255) translate(170 255) scale(1 1) translate(-170 -255)"><g><path d="M0 255A170 170 0 0 1 340 255Z" fill="#D8CDF0"/><g transform="translate(305.76 139.88) scale(1.02)"><circle cx="0" cy="0" r="12.5" fill="none" stroke="#BDAEE6" stroke-width="7"/></g></g><g><g transform="translate(96.54 175)"><g clip-path="url(#peek-5th30e-e0)"><ellipse cx="0" cy="0" rx="29.7" ry="24.75" fill="#FFFDF8"/><circle cx="-0.84" cy="0" r="12.15" fill="#1A1918"/><circle cx="4.5" cy="-5.35" r="3.65" fill="#FFFDF8" opacity="0.7"/><ellipse cx="0" cy="0" rx="27.45" ry="22.5" fill="none" stroke="#1A1918" stroke-width="4.5"/></g><g clip-path="url(#peek-5th30e-l0)"><rect x="-65.34" y="-74.25" width="130.68" height="53.17" transform="rotate(0)" fill="#D8CDF0"/><ellipse cx="0" cy="54.81" rx="46.04" ry="28.46" fill="#D8CDF0"/></g><g clip-path="url(#peek-5th30e-e0)" fill="none" stroke="#1A1918" stroke-width="4.5"><path d="M-65.34 -21.08H65.34" transform="rotate(0)" opacity="1"/></g></g><g transform="translate(243.46 175)"><g clip-path="url(#peek-5th30e-e1)"><ellipse cx="0" cy="0" rx="29.7" ry="24.75" fill="#FFFDF8"/><circle cx="-0.84" cy="0" r="12.15" fill="#1A1918"/><circle cx="4.5" cy="-5.35" r="3.65" fill="#FFFDF8" opacity="0.7"/><ellipse cx="0" cy="0" rx="27.45" ry="22.5" fill="none" stroke="#1A1918" stroke-width="4.5"/></g><g clip-path="url(#peek-5th30e-l1)"><rect x="-65.34" y="-74.25" width="130.68" height="53.17" transform="rotate(0)" fill="#D8CDF0"/><ellipse cx="0" cy="54.81" rx="46.04" ry="28.46" fill="#D8CDF0"/></g><g clip-path="url(#peek-5th30e-e1)" fill="none" stroke="#1A1918" stroke-width="4.5"><path d="M-65.34 -21.08H65.34" transform="rotate(0)" opacity="1"/></g></g><path d="M-22.5 0Q0 -2.79 22.5 0" transform="translate(96.54 125.39) rotate(4.11)" fill="none" stroke="#1A1918" stroke-linecap="round" stroke-linejoin="round" stroke-width="10.92"/><path d="M-22.5 0Q0 -2.79 22.5 0" transform="translate(243.46 125.39) rotate(-4.11)" fill="none" stroke="#1A1918" stroke-linecap="round" stroke-linejoin="round" stroke-width="10.92"/><path d="M-10.06 0C-10.06 10.83 10.06 10.83 10.06 0C10.06 0 -10.06 0 -10.06 0Z" transform="translate(170 220.29) rotate(0)" fill="#1A1918" stroke="#1A1918" stroke-linecap="round" stroke-linejoin="round" stroke-width="4.38"/></g></g></g></svg><svg x="0" y="172" xmlns="http://www.w3.org/2000/svg" viewBox="-30 -30 400 400" width="140" height="140" role="img" aria-label="Linh"><defs><clipPath id="peek-t39mq8-f"><rect x="-30" y="-30" width="400" height="400"/></clipPath><clipPath id="peek-t39mq8-e0"><ellipse cx="0" cy="0" rx="21.83" ry="29.1"/></clipPath><clipPath id="peek-t39mq8-l0"><ellipse cx="0" cy="0" rx="23.43" ry="30.7"/></clipPath><clipPath id="peek-t39mq8-e1"><ellipse cx="0" cy="0" rx="21.83" ry="29.1"/></clipPath><clipPath id="peek-t39mq8-l1"><ellipse cx="0" cy="0" rx="23.43" ry="30.7"/></clipPath></defs><g clip-path="url(#peek-t39mq8-f)"><rect x="-30" y="-30" width="400" height="400" fill="#1A1918"/><g transform="translate(0 57.2) rotate(1.37 170 312.8) translate(170 312.8) scale(1 1) translate(-170 -312.8)"><g><path d="M170 40.8L312.8 299.2L27.2 299.2Z" fill="#EFCAD7" stroke="#EFCAD7" stroke-width="27.2" stroke-linejoin="round"/><g transform="translate(224.08 94) scale(1)"><circle cx="0" cy="0" r="12.5" fill="none" stroke="#DFA4BA" stroke-width="7"/></g></g><g><g transform="translate(125.74 210.8)"><g clip-path="url(#peek-t39mq8-e0)"><ellipse cx="0" cy="0" rx="21.83" ry="29.1" fill="#FFFDF8"/><circle cx="-0.28" cy="0" r="9.8" fill="#1A1918"/><circle cx="4.03" cy="-4.31" r="2.94" fill="#FFFDF8" opacity="0.7"/><ellipse cx="0" cy="0" rx="19.58" ry="26.86" fill="none" stroke="#1A1918" stroke-width="4.5"/></g><g clip-path="url(#peek-t39mq8-l0)"><rect x="-48.02" y="-87.31" width="96.04" height="62.75" transform="rotate(0)" fill="#EFCAD7"/><ellipse cx="0" cy="64.17" rx="33.83" ry="33.47" fill="#EFCAD7"/></g><g clip-path="url(#peek-t39mq8-e0)" fill="none" stroke="#1A1918" stroke-width="4.5"><path d="M-48.02 -24.56H48.02" transform="rotate(0)" opacity="1"/></g></g><g transform="translate(214.26 210.8)"><g clip-path="url(#peek-t39mq8-e1)"><ellipse cx="0" cy="0" rx="21.83" ry="29.1" fill="#FFFDF8"/><circle cx="-0.28" cy="0" r="9.8" fill="#1A1918"/><circle cx="4.03" cy="-4.31" r="2.94" fill="#FFFDF8" opacity="0.7"/><ellipse cx="0" cy="0" rx="19.58" ry="26.86" fill="none" stroke="#1A1918" stroke-width="4.5"/></g><g clip-path="url(#peek-t39mq8-l1)"><rect x="-48.02" y="-87.31" width="96.04" height="62.75" transform="rotate(0)" fill="#EFCAD7"/><ellipse cx="0" cy="64.17" rx="33.83" ry="33.47" fill="#EFCAD7"/></g><g clip-path="url(#peek-t39mq8-e1)" fill="none" stroke="#1A1918" stroke-width="4.5"><path d="M-48.02 -24.56H48.02" transform="rotate(0)" opacity="1"/></g></g><path d="M-7.85 0Q0 -1.76 7.85 0" transform="translate(125.74 163.05) rotate(0.32)" fill="none" stroke="#1A1918" stroke-linecap="round" stroke-linejoin="round" stroke-width="11.53"/><path d="M-7.85 0Q0 -1.76 7.85 0" transform="translate(214.26 163.05) rotate(-0.32)" fill="none" stroke="#1A1918" stroke-linecap="round" stroke-linejoin="round" stroke-width="11.53"/><path d="M-10.53 0L-7.58 8.13L7.58 8.13L10.53 0L7.58 0L-7.58 0Z" transform="translate(170 253.71) rotate(0)" fill="#1A1918" stroke="#1A1918" stroke-linecap="round" stroke-linejoin="round" stroke-width="4.38"/></g></g></g></svg><svg x="140" y="172" xmlns="http://www.w3.org/2000/svg" viewBox="-30 -30 400 400" width="140" height="140" role="img" aria-label="Mai"><defs><clipPath id="peek-6xplt4-f"><rect x="-30" y="-30" width="400" height="400"/></clipPath><clipPath id="peek-6xplt4-e0"><ellipse cx="0" cy="0" rx="19.18" ry="25.57"/></clipPath><clipPath id="peek-6xplt4-l0"><ellipse cx="0" cy="0" rx="20.78" ry="27.17"/></clipPath><clipPath id="peek-6xplt4-e1"><ellipse cx="0" cy="0" rx="19.18" ry="25.57"/></clipPath><clipPath id="peek-6xplt4-l1"><ellipse cx="0" cy="0" rx="20.78" ry="27.17"/></clipPath></defs><g clip-path="url(#peek-6xplt4-f)"><rect x="-30" y="-30" width="400" height="400" fill="#1A1918"/><g transform="translate(0 57.2) rotate(-2.52 170 312.8) translate(170 312.8) scale(1 1) translate(-170 -312.8)"><g><path d="M170 40.8L312.8 299.2L27.2 299.2Z" fill="#BDE1E5" stroke="#BDE1E5" stroke-width="27.2" stroke-linejoin="round"/><g transform="translate(170 4.2) rotate(24.3)"><rect x="-11" y="-11" width="22" height="22" fill="#8FC7D1"/></g></g><g><g transform="translate(128.1 210.8)"><g clip-path="url(#peek-6xplt4-e0)"><circle cx="0.63" cy="0" r="12.1" fill="#1A1918"/><circle cx="5.95" cy="-5.33" r="3.15" fill="#FFFDF8" opacity="0.7"/></g><g clip-path="url(#peek-6xplt4-l0)"><rect x="-42.19" y="-76.7" width="84.37" height="54.97" transform="rotate(0)" fill="#BDE1E5"/><ellipse cx="0" cy="56.57" rx="29.72" ry="29.4" fill="#BDE1E5"/></g></g><g transform="translate(212.98 210.8)"><g clip-path="url(#peek-6xplt4-e1)"><circle cx="0.63" cy="0" r="12.1" fill="#1A1918"/><circle cx="5.95" cy="-5.33" r="3.15" fill="#FFFDF8" opacity="0.7"/></g><g clip-path="url(#peek-6xplt4-l1)"><rect x="-42.19" y="-76.7" width="84.37" height="54.97" transform="rotate(0)" fill="#BDE1E5"/><ellipse cx="0" cy="56.57" rx="29.72" ry="29.4" fill="#BDE1E5"/></g></g><path d="M-7.85 0Q0 -0.92 7.85 0" transform="translate(127.56 166.39) rotate(-4.07)" fill="none" stroke="#1A1918" stroke-linecap="round" stroke-linejoin="round" stroke-width="12.07"/><path d="M-7.85 0Q0 -0.92 7.85 0" transform="translate(212.44 166.39) rotate(4.07)" fill="none" stroke="#1A1918" stroke-linecap="round" stroke-linejoin="round" stroke-width="12.07"/><path d="M-11.87 0L-8.55 8.13L8.55 8.13L11.87 0L8.55 0L-8.55 0Z" transform="translate(170 253.36) rotate(0)" fill="#1A1918" stroke="#1A1918" stroke-linecap="round" stroke-linejoin="round" stroke-width="4.38"/></g></g></g></svg><svg x="280" y="172" xmlns="http://www.w3.org/2000/svg" viewBox="-30 -30 400 400" width="140" height="140" role="img" aria-label="Oz"><defs><clipPath id="peek-194zsg0-f"><rect x="-30" y="-30" width="400" height="400"/></clipPath><clipPath id="peek-194zsg0-e0"><ellipse cx="0" cy="0" rx="21.62" ry="28.83"/></clipPath><clipPath id="peek-194zsg0-l0"><ellipse cx="0" cy="0" rx="23.22" ry="30.43"/></clipPath><clipPath id="peek-194zsg0-e1"><ellipse cx="0" cy="0" rx="21.62" ry="28.83"/></clipPath><clipPath id="peek-194zsg0-l1"><ellipse cx="0" cy="0" rx="23.22" ry="30.43"/></clipPath></defs><g clip-path="url(#peek-194zsg0-f)"><rect x="-30" y="-30" width="400" height="400" fill="#1A1918"/><g transform="translate(0 57.2) rotate(-0.51 170 312.8) translate(170 312.8) scale(1 1) translate(-170 -312.8)"><g><path d="M170 40.8L312.8 299.2L27.2 299.2Z" fill="#F1CDBF" stroke="#F1CDBF" stroke-width="27.2" stroke-linejoin="round"/><g transform="translate(136.81 85.15) rotate(-59.47)"><path d="M0 0L0 -40A40 40 0 0 1 40 0Z" fill="#E2A893"/></g></g><g><g transform="translate(127.01 210.8)"><g clip-path="url(#peek-194zsg0-e0)"><ellipse cx="0" cy="0" rx="21.62" ry="28.83" fill="#FFFDF8"/><circle cx="-0.09" cy="0" r="9.6" fill="#1A1918"/><circle cx="4.13" cy="-4.22" r="2.88" fill="#FFFDF8" opacity="0.7"/><ellipse cx="0" cy="0" rx="19.38" ry="26.58" fill="none" stroke="#1A1918" stroke-width="4.5"/></g><g clip-path="url(#peek-194zsg0-l0)"><rect x="-47.57" y="-86.5" width="95.15" height="62.15" transform="rotate(0)" fill="#F1CDBF"/><ellipse cx="0" cy="63.59" rx="33.52" ry="33.16" fill="#F1CDBF"/></g><g clip-path="url(#peek-194zsg0-e0)" fill="none" stroke="#1A1918" stroke-width="4.5"><path d="M-47.57 -24.35H47.57" transform="rotate(0)" opacity="1"/></g></g><g transform="translate(212.99 210.8)"><g clip-path="url(#peek-194zsg0-e1)"><ellipse cx="0" cy="0" rx="21.62" ry="28.83" fill="#FFFDF8"/><circle cx="-0.09" cy="0" r="9.6" fill="#1A1918"/><circle cx="4.13" cy="-4.22" r="2.88" fill="#FFFDF8" opacity="0.7"/><ellipse cx="0" cy="0" rx="19.38" ry="26.58" fill="none" stroke="#1A1918" stroke-width="4.5"/></g><g clip-path="url(#peek-194zsg0-l1)"><rect x="-47.57" y="-86.5" width="95.15" height="62.15" transform="rotate(0)" fill="#F1CDBF"/><ellipse cx="0" cy="63.59" rx="33.52" ry="33.16" fill="#F1CDBF"/></g><g clip-path="url(#peek-194zsg0-e1)" fill="none" stroke="#1A1918" stroke-width="4.5"><path d="M-47.57 -24.35H47.57" transform="rotate(0)" opacity="1"/></g></g><path d="M-7.85 0Q0 -1.91 7.85 0" transform="translate(127.01 164.64) rotate(-3.41)" fill="none" stroke="#1A1918" stroke-linecap="round" stroke-linejoin="round" stroke-width="11.75"/><path d="M-7.85 0Q0 -1.91 7.85 0" transform="translate(212.99 164.64) rotate(3.41)" fill="none" stroke="#1A1918" stroke-linecap="round" stroke-linejoin="round" stroke-width="11.75"/><path d="M-13.71 0L-9.87 8.13L9.87 8.13L13.71 0L9.87 0L-9.87 0Z" transform="translate(170 253.23) rotate(0)" fill="#1A1918" stroke="#1A1918" stroke-linecap="round" stroke-linejoin="round" stroke-width="4.38"/></g></g></g></svg><svg x="420" y="172" xmlns="http://www.w3.org/2000/svg" viewBox="-30 -30 400 400" width="140" height="140" role="img" aria-label="Quinn"><defs><clipPath id="peek-1achuns-f"><rect x="-30" y="-30" width="400" height="400"/></clipPath><clipPath id="peek-1achuns-e0"><ellipse cx="0" cy="0" rx="19.18" ry="25.57"/></clipPath><clipPath id="peek-1achuns-l0"><ellipse cx="0" cy="0" rx="20.78" ry="27.17"/></clipPath><clipPath id="peek-1achuns-e1"><ellipse cx="0" cy="0" rx="19.18" ry="25.57"/></clipPath><clipPath id="peek-1achuns-l1"><ellipse cx="0" cy="0" rx="20.78" ry="27.17"/></clipPath></defs><g clip-path="url(#peek-1achuns-f)"><rect x="-30" y="-30" width="400" height="400" fill="#1A1918"/><g transform="translate(0 57.2) rotate(1.46 170 312.8) translate(170 312.8) scale(1 1) translate(-170 -312.8)"><g><path d="M170 40.8L312.8 299.2L27.2 299.2Z" fill="#F1CDBF" stroke="#F1CDBF" stroke-width="27.2" stroke-linejoin="round"/><g transform="translate(223.89 93.66) scale(1)"><circle cx="0" cy="0" r="12.5" fill="none" stroke="#E2A893" stroke-width="7"/></g></g><g><g transform="translate(129.89 210.8)"><g clip-path="url(#peek-1achuns-e0)"><ellipse cx="0" cy="0" rx="19.18" ry="25.57" fill="#FFFDF8"/><circle cx="-0.75" cy="0" r="9.3" fill="#1A1918"/><circle cx="3.34" cy="-4.09" r="2.79" fill="#FFFDF8" opacity="0.7"/><ellipse cx="0" cy="0" rx="16.93" ry="23.32" fill="none" stroke="#1A1918" stroke-width="4.5"/></g><g clip-path="url(#peek-1achuns-l0)"><rect x="-42.19" y="-76.7" width="84.37" height="54.97" transform="rotate(0)" fill="#F1CDBF"/><ellipse cx="0" cy="56.57" rx="29.72" ry="29.4" fill="#F1CDBF"/></g><g clip-path="url(#peek-1achuns-e0)" fill="none" stroke="#1A1918" stroke-width="4.5"><path d="M-42.19 -21.73H42.19" transform="rotate(0)" opacity="1"/></g></g><g transform="translate(210.11 210.8)"><g clip-path="url(#peek-1achuns-e1)"><ellipse cx="0" cy="0" rx="19.18" ry="25.57" fill="#FFFDF8"/><circle cx="-0.75" cy="0" r="9.3" fill="#1A1918"/><circle cx="3.34" cy="-4.09" r="2.79" fill="#FFFDF8" opacity="0.7"/><ellipse cx="0" cy="0" rx="16.93" ry="23.32" fill="none" stroke="#1A1918" stroke-width="4.5"/></g><g clip-path="url(#peek-1achuns-l1)"><rect x="-42.19" y="-76.7" width="84.37" height="54.97" transform="rotate(0)" fill="#F1CDBF"/><ellipse cx="0" cy="56.57" rx="29.72" ry="29.4" fill="#F1CDBF"/></g><g clip-path="url(#peek-1achuns-e1)" fill="none" stroke="#1A1918" stroke-width="4.5"><path d="M-42.19 -21.73H42.19" transform="rotate(0)" opacity="1"/></g></g><path d="M-7.85 0Q0 -1.84 7.85 0" transform="translate(129.89 170.11) rotate(3.79)" fill="none" stroke="#1A1918" stroke-linecap="round" stroke-linejoin="round" stroke-width="12.49"/><path d="M-7.85 0Q0 -1.84 7.85 0" transform="translate(210.11 170.11) rotate(-3.79)" fill="none" stroke="#1A1918" stroke-linecap="round" stroke-linejoin="round" stroke-width="12.49"/><path d="M-10.65 0L-7.67 8.13L7.67 8.13L10.65 0L7.67 0L-7.67 0Z" transform="translate(170 252.57) rotate(0)" fill="#1A1918" stroke="#1A1918" stroke-linecap="round" stroke-linejoin="round" stroke-width="4.38"/></g></g></g></svg><svg x="560" y="172" xmlns="http://www.w3.org/2000/svg" viewBox="-30 -30 400 400" width="140" height="140" role="img" aria-label="Thanh"><defs><clipPath id="peek-m8ndjg-f"><rect x="-30" y="-30" width="400" height="400"/></clipPath><clipPath id="peek-m8ndjg-e0"><ellipse cx="0" cy="0" rx="20.4" ry="27.2"/></clipPath><clipPath id="peek-m8ndjg-l0"><ellipse cx="0" cy="0" rx="22" ry="28.8"/></clipPath><clipPath id="peek-m8ndjg-e1"><ellipse cx="0" cy="0" rx="20.4" ry="27.2"/></clipPath><clipPath id="peek-m8ndjg-l1"><ellipse cx="0" cy="0" rx="22" ry="28.8"/></clipPath></defs><g clip-path="url(#peek-m8ndjg-f)"><rect x="-30" y="-30" width="400" height="400" fill="#1A1918"/><g transform="translate(0 57.2) rotate(2.57 170 312.8) translate(170 312.8) scale(1 1) translate(-170 -312.8)"><g><path d="M170 40.8L312.8 299.2L27.2 299.2Z" fill="#C8D6E8" stroke="#C8D6E8" stroke-width="27.2" stroke-linejoin="round"/><g transform="translate(170 2.5) rotate(28.21)"><rect x="-11" y="-11" width="22" height="22" fill="#A8BCDC"/></g></g><g><g transform="translate(136.42 210.8)"><g clip-path="url(#peek-m8ndjg-e0)"><ellipse cx="0" cy="0" rx="20.4" ry="27.2" fill="#FFFDF8"/><circle cx="-0.19" cy="0" r="9.6" fill="#1A1918"/><circle cx="4.04" cy="-4.22" r="2.88" fill="#FFFDF8" opacity="0.7"/><ellipse cx="0" cy="0" rx="18.15" ry="24.95" fill="none" stroke="#1A1918" stroke-width="4.5"/></g><g clip-path="url(#peek-m8ndjg-l0)"><rect x="-44.88" y="-81.6" width="89.76" height="58.56" transform="rotate(0)" fill="#C8D6E8"/><ellipse cx="0" cy="60.08" rx="31.62" ry="31.28" fill="#C8D6E8"/></g><g clip-path="url(#peek-m8ndjg-e0)" fill="none" stroke="#1A1918" stroke-width="4.5"><path d="M-44.88 -23.04H44.88" transform="rotate(0)" opacity="1"/></g></g><g transform="translate(203.58 210.8)"><g clip-path="url(#peek-m8ndjg-e1)"><ellipse cx="0" cy="0" rx="20.4" ry="27.2" fill="#FFFDF8"/><circle cx="-0.19" cy="0" r="9.6" fill="#1A1918"/><circle cx="4.04" cy="-4.22" r="2.88" fill="#FFFDF8" opacity="0.7"/><ellipse cx="0" cy="0" rx="18.15" ry="24.95" fill="none" stroke="#1A1918" stroke-width="4.5"/></g><g clip-path="url(#peek-m8ndjg-l1)"><rect x="-44.88" y="-81.6" width="89.76" height="58.56" transform="rotate(0)" fill="#C8D6E8"/><ellipse cx="0" cy="60.08" rx="31.62" ry="31.28" fill="#C8D6E8"/></g><g clip-path="url(#peek-m8ndjg-e1)" fill="none" stroke="#1A1918" stroke-width="4.5"><path d="M-44.88 -23.04H44.88" transform="rotate(0)" opacity="1"/></g></g><path d="M-7.85 0Q0 -2.07 7.85 0" transform="translate(136.42 162.86) rotate(2.44)" fill="none" stroke="#1A1918" stroke-linecap="round" stroke-linejoin="round" stroke-width="9.5"/><path d="M-7.85 0Q0 -2.07 7.85 0" transform="translate(203.58 162.86) rotate(-2.44)" fill="none" stroke="#1A1918" stroke-linecap="round" stroke-linejoin="round" stroke-width="9.5"/><path d="M-12.73 0L-9.17 8.13L9.17 8.13L12.73 0L9.17 0L-9.17 0Z" transform="translate(170 253.92) rotate(0)" fill="#1A1918" stroke="#1A1918" stroke-linecap="round" stroke-linejoin="round" stroke-width="4.38"/></g></g></g></svg><svg x="700" y="172" xmlns="http://www.w3.org/2000/svg" viewBox="-30 -30 400 400" width="140" height="140" role="img" aria-label="Zoe"><defs><clipPath id="peek-pekoq6-f"><rect x="-30" y="-30" width="400" height="400"/></clipPath><clipPath id="peek-pekoq6-e0"><ellipse cx="0" cy="0" rx="19.8" ry="27.23"/></clipPath><clipPath id="peek-pekoq6-l0"><ellipse cx="0" cy="0" rx="21.4" ry="28.83"/></clipPath><clipPath id="peek-pekoq6-e1"><ellipse cx="0" cy="0" rx="19.8" ry="27.23"/></clipPath><clipPath id="peek-pekoq6-l1"><ellipse cx="0" cy="0" rx="21.4" ry="28.83"/></clipPath></defs><g clip-path="url(#peek-pekoq6-f)"><rect x="-30" y="-30" width="400" height="400" fill="#1A1918"/><g transform="translate(0 80) rotate(-1.37 170 320) translate(170 320) scale(1 1) translate(-170 -320)"><g><path d="M170 20L320 170L170 320L20 170Z" fill="#BDE1E5"/><g transform="translate(266.08 104.77) scale(1.03)"><circle cx="0" cy="0" r="12.5" fill="none" stroke="#8FC7D1" stroke-width="7"/></g></g><g><g transform="translate(129.76 155)"><g clip-path="url(#peek-pekoq6-e0)"><ellipse cx="0" cy="0" rx="19.8" ry="27.23" fill="#FFFDF8"/><circle cx="-0.81" cy="0" r="11" fill="#1A1918"/><circle cx="4.03" cy="-4.84" r="3.3" fill="#FFFDF8" opacity="0.7"/></g><g clip-path="url(#peek-pekoq6-l0)"><rect x="-43.56" y="-81.68" width="87.12" height="58.62" transform="rotate(0)" fill="#BDE1E5"/><ellipse cx="0" cy="60.13" rx="30.69" ry="31.31" fill="#BDE1E5"/></g></g><g transform="translate(210.24 155)"><g clip-path="url(#peek-pekoq6-e1)"><ellipse cx="0" cy="0" rx="19.8" ry="27.23" fill="#FFFDF8"/><circle cx="-0.81" cy="0" r="11" fill="#1A1918"/><circle cx="4.03" cy="-4.84" r="3.3" fill="#FFFDF8" opacity="0.7"/></g><g clip-path="url(#peek-pekoq6-l1)"><rect x="-43.56" y="-81.68" width="87.12" height="58.62" transform="rotate(0)" fill="#BDE1E5"/><ellipse cx="0" cy="60.13" rx="30.69" ry="31.31" fill="#BDE1E5"/></g></g><path d="M-18.75 0Q0 -8.55 18.75 0" transform="translate(129.76 106.53) rotate(-1.93)" fill="none" stroke="#1A1918" stroke-linecap="round" stroke-linejoin="round" stroke-width="6.58"/><path d="M-18.75 0Q0 -8.55 18.75 0" transform="translate(210.24 106.53) rotate(1.93)" fill="none" stroke="#1A1918" stroke-linecap="round" stroke-linejoin="round" stroke-width="6.58"/><path d="M-12.2 0L0 0L12.2 0L0 8.13Z" transform="translate(170 220.85) rotate(0)" fill="#1A1918" stroke="#1A1918" stroke-linecap="round" stroke-linejoin="round" stroke-width="4.38"/></g></g></g></svg><g font-family="ui-monospace, SFMono-Regular, Menlo, monospace" font-size="13" letter-spacing="1" fill="#F3F0E8" fill-opacity="0.6" text-anchor="middle"><text x="70" y="161">ADA</text><text x="210" y="161">BAO</text><text x="350" y="161">CY</text><text x="490" y="161">DEV</text><text x="630" y="161">HANA</text><text x="770" y="161">KAI</text><text x="70" y="333">LINH</text><text x="210" y="333">MAI</text><text x="350" y="333">OZ</text><text x="490" y="333">QUINN</text><text x="630" y="333">THANH</text><text x="770" y="333">ZOE</text></g></g></svg>
